<svg xmlns="http://www.w3.org/2000/svg" viewBox="0 0 256 256" role="img" aria-labelledby="title desc">
  <title id="title">gconfig logo</title>
  <desc id="desc">A simple config card icon with a small clown-like face.</desc>
  <rect width="256" height="256" rx="48" fill="#172033"/>
  <circle cx="78" cy="180" r="36" fill="#ff3150"/>
  <circle cx="178" cy="180" r="36" fill="#11c4d9"/>
  <path d="M64 95c0-35 29-63 64-63s64 28 64 63v44c0 39-29 69-64 69s-64-30-64-69V95z" fill="#f6f8ff"/>
  <path d="M70 101c3-31 25-56 52-64 7-2 13 4 11 11-6 28-25 40-50 49l-13 4z" fill="#ff9b1f"/>
  <path d="M186 101c-3-31-25-56-52-64-7-2-13 4-11 11 6 28 25 40 50 49l13 4z" fill="#ff9b1f"/>
  <rect x="78" y="105" width="100" height="68" rx="10" fill="#f2df9b" stroke="#172033" stroke-width="7"/>
  <path d="M96 124h64M96 144h64" stroke="#172033" stroke-width="7" stroke-linecap="round"/>
  <circle cx="108" cy="124" r="9" fill="#ff3150"/>
  <circle cx="146" cy="144" r="9" fill="#11c4d9"/>
  <circle cx="105" cy="88" r="9" fill="#172033"/>
  <circle cx="151" cy="88" r="9" fill="#172033"/>
  <circle cx="128" cy="96" r="13" fill="#ff3150"/>
  <path d="M104 184c14 15 34 15 48 0" fill="none" stroke="#172033" stroke-width="11" stroke-linecap="round"/>
</svg>
